<mxfile host="app.diagrams.net" modified="2022-07-04T03:24:37.327Z" agent="5.0 (Macintosh; Intel Mac OS X 10_15_7) AppleWebKit/537.36 (KHTML, like Gecko) Chrome/103.0.0.0 Safari/537.36" etag="nMHmvRGqH0n6hngKwX2g" version="20.0.4" type="github">
  <diagram id="I-Rdm4NnU1atrtdz0zmf" name="Page-1">
    <mxGraphModel dx="1728" dy="913" grid="1" gridSize="10" guides="1" tooltips="1" connect="1" arrows="1" fold="1" page="1" pageScale="1" pageWidth="827" pageHeight="1169" math="0" shadow="0">
      <root>
        <mxCell id="0" />
        <mxCell id="1" parent="0" />
        <mxCell id="NKFcS4flrV_AODu7ja6--11" value="start&amp;nbsp;" style="ellipse;whiteSpace=wrap;html=1;" parent="1" vertex="1">
          <mxGeometry x="40" y="30" width="100" height="80" as="geometry" />
        </mxCell>
        <mxCell id="NKFcS4flrV_AODu7ja6--13" value="" style="endArrow=classic;html=1;rounded=0;" parent="1" edge="1">
          <mxGeometry width="50" height="50" relative="1" as="geometry">
            <mxPoint x="140" y="69.5" as="sourcePoint" />
            <mxPoint x="200" y="69.5" as="targetPoint" />
          </mxGeometry>
        </mxCell>
        <mxCell id="NKFcS4flrV_AODu7ja6--14" value="เลือกวาระที่ต้องการ" style="rounded=1;whiteSpace=wrap;html=1;" parent="1" vertex="1">
          <mxGeometry x="200" y="40" width="120" height="60" as="geometry" />
        </mxCell>
        <mxCell id="NKFcS4flrV_AODu7ja6--15" value="" style="endArrow=classic;html=1;rounded=0;" parent="1" edge="1">
          <mxGeometry width="50" height="50" relative="1" as="geometry">
            <mxPoint x="320" y="70" as="sourcePoint" />
            <mxPoint x="390" y="70" as="targetPoint" />
          </mxGeometry>
        </mxCell>
        <mxCell id="NKFcS4flrV_AODu7ja6--16" value="เรียก API GetAgendaDisplay&lt;br&gt;Parameter : 1.วาระที่เลือก" style="rounded=1;whiteSpace=wrap;html=1;" parent="1" vertex="1">
          <mxGeometry x="390" y="37.5" width="120" height="65" as="geometry" />
        </mxCell>
        <mxCell id="NKFcS4flrV_AODu7ja6--18" value="เเสดงแจ้งเตือนระบบว่าไม่สามารถเชื่อมต่อได้" style="rounded=1;whiteSpace=wrap;html=1;" parent="1" vertex="1">
          <mxGeometry x="570" y="170" width="120" height="60" as="geometry" />
        </mxCell>
        <mxCell id="NKFcS4flrV_AODu7ja6--19" value="" style="group" parent="1" vertex="1" connectable="0">
          <mxGeometry x="400" y="102.5" width="160" height="177.5" as="geometry" />
        </mxCell>
        <mxCell id="NKFcS4flrV_AODu7ja6--20" value="เชื่อมต่อได้" style="rhombus;whiteSpace=wrap;html=1;rounded=1;" parent="NKFcS4flrV_AODu7ja6--19" vertex="1">
          <mxGeometry x="10" y="57.5" width="80" height="80" as="geometry" />
        </mxCell>
        <mxCell id="NKFcS4flrV_AODu7ja6--21" value="" style="endArrow=classic;html=1;rounded=0;" parent="NKFcS4flrV_AODu7ja6--19" edge="1">
          <mxGeometry width="50" height="50" relative="1" as="geometry">
            <mxPoint x="49.5" as="sourcePoint" />
            <mxPoint x="49.5" y="60" as="targetPoint" />
          </mxGeometry>
        </mxCell>
        <mxCell id="NKFcS4flrV_AODu7ja6--22" value="" style="endArrow=classic;html=1;rounded=0;" parent="NKFcS4flrV_AODu7ja6--19" edge="1">
          <mxGeometry width="50" height="50" relative="1" as="geometry">
            <mxPoint x="90" y="97" as="sourcePoint" />
            <mxPoint x="160" y="97" as="targetPoint" />
          </mxGeometry>
        </mxCell>
        <mxCell id="NKFcS4flrV_AODu7ja6--23" value="" style="endArrow=classic;html=1;rounded=0;" parent="NKFcS4flrV_AODu7ja6--19" edge="1">
          <mxGeometry width="50" height="50" relative="1" as="geometry">
            <mxPoint x="50" y="137.5" as="sourcePoint" />
            <mxPoint x="50" y="177.5" as="targetPoint" />
          </mxGeometry>
        </mxCell>
        <mxCell id="NKFcS4flrV_AODu7ja6--24" value="ไม่ได้" style="text;html=1;align=center;verticalAlign=middle;resizable=0;points=[];autosize=1;strokeColor=none;fillColor=none;" parent="NKFcS4flrV_AODu7ja6--19" vertex="1">
          <mxGeometry x="90" y="57.5" width="50" height="30" as="geometry" />
        </mxCell>
        <mxCell id="NKFcS4flrV_AODu7ja6--25" value="ได้" style="text;html=1;align=center;verticalAlign=middle;resizable=0;points=[];autosize=1;strokeColor=none;fillColor=none;" parent="NKFcS4flrV_AODu7ja6--19" vertex="1">
          <mxGeometry y="142.5" width="40" height="30" as="geometry" />
        </mxCell>
        <mxCell id="NKFcS4flrV_AODu7ja6--26" value="" style="edgeStyle=orthogonalEdgeStyle;rounded=0;orthogonalLoop=1;jettySize=auto;html=1;" parent="1" source="NKFcS4flrV_AODu7ja6--20" target="NKFcS4flrV_AODu7ja6--16" edge="1">
          <mxGeometry relative="1" as="geometry" />
        </mxCell>
        <mxCell id="NKFcS4flrV_AODu7ja6--27" value="" style="group" parent="1" vertex="1" connectable="0">
          <mxGeometry x="400" y="340" width="180" height="240" as="geometry" />
        </mxCell>
        <mxCell id="NKFcS4flrV_AODu7ja6--28" value="สถานะ S" style="rhombus;whiteSpace=wrap;html=1;rounded=1;" parent="NKFcS4flrV_AODu7ja6--27" vertex="1">
          <mxGeometry x="10" y="57.5" width="80" height="80" as="geometry" />
        </mxCell>
        <mxCell id="NKFcS4flrV_AODu7ja6--29" value="" style="endArrow=classic;html=1;rounded=0;" parent="NKFcS4flrV_AODu7ja6--27" edge="1">
          <mxGeometry width="50" height="50" relative="1" as="geometry">
            <mxPoint x="49.5" as="sourcePoint" />
            <mxPoint x="49.5" y="60" as="targetPoint" />
          </mxGeometry>
        </mxCell>
        <mxCell id="NKFcS4flrV_AODu7ja6--30" value="" style="endArrow=classic;html=1;rounded=0;" parent="NKFcS4flrV_AODu7ja6--27" edge="1">
          <mxGeometry width="50" height="50" relative="1" as="geometry">
            <mxPoint x="90" y="97" as="sourcePoint" />
            <mxPoint x="160" y="97" as="targetPoint" />
          </mxGeometry>
        </mxCell>
        <mxCell id="NKFcS4flrV_AODu7ja6--31" value="" style="endArrow=classic;html=1;rounded=0;" parent="NKFcS4flrV_AODu7ja6--27" edge="1">
          <mxGeometry width="50" height="50" relative="1" as="geometry">
            <mxPoint x="50" y="137.5" as="sourcePoint" />
            <mxPoint x="50" y="177.5" as="targetPoint" />
          </mxGeometry>
        </mxCell>
        <mxCell id="NKFcS4flrV_AODu7ja6--32" value="ไม่ใช่" style="text;html=1;align=center;verticalAlign=middle;resizable=0;points=[];autosize=1;strokeColor=none;fillColor=none;" parent="NKFcS4flrV_AODu7ja6--27" vertex="1">
          <mxGeometry x="90" y="57.5" width="50" height="30" as="geometry" />
        </mxCell>
        <mxCell id="NKFcS4flrV_AODu7ja6--33" value="ใช่" style="text;html=1;align=center;verticalAlign=middle;resizable=0;points=[];autosize=1;strokeColor=none;fillColor=none;" parent="NKFcS4flrV_AODu7ja6--27" vertex="1">
          <mxGeometry y="142.5" width="40" height="30" as="geometry" />
        </mxCell>
        <mxCell id="NKFcS4flrV_AODu7ja6--37" value="อัพเดทข้อมูลวาระปัจจุบันที่เลือก&amp;nbsp;" style="rounded=1;whiteSpace=wrap;html=1;" parent="NKFcS4flrV_AODu7ja6--27" vertex="1">
          <mxGeometry x="-10" y="180" width="120" height="60" as="geometry" />
        </mxCell>
        <mxCell id="NKFcS4flrV_AODu7ja6--35" value="ตรวจสอบสถานะข้อมูล" style="rounded=1;whiteSpace=wrap;html=1;" parent="1" vertex="1">
          <mxGeometry x="365" y="280" width="170" height="60" as="geometry" />
        </mxCell>
        <mxCell id="NKFcS4flrV_AODu7ja6--36" value="แสดงการแจ้งเตือนข้อผิดพลาด" style="rounded=1;whiteSpace=wrap;html=1;" parent="1" vertex="1">
          <mxGeometry x="560" y="400" width="120" height="60" as="geometry" />
        </mxCell>
        <mxCell id="NKFcS4flrV_AODu7ja6--43" value="end" style="ellipse;whiteSpace=wrap;html=1;" parent="1" vertex="1">
          <mxGeometry x="560" y="770" width="100" height="80" as="geometry" />
        </mxCell>
        <mxCell id="NKFcS4flrV_AODu7ja6--44" value="" style="endArrow=none;html=1;rounded=0;" parent="1" edge="1">
          <mxGeometry width="50" height="50" relative="1" as="geometry">
            <mxPoint x="690" y="200" as="sourcePoint" />
            <mxPoint x="750" y="200" as="targetPoint" />
          </mxGeometry>
        </mxCell>
        <mxCell id="NKFcS4flrV_AODu7ja6--45" value="" style="endArrow=none;html=1;rounded=0;exitX=1;exitY=0.5;exitDx=0;exitDy=0;" parent="1" source="NKFcS4flrV_AODu7ja6--36" edge="1">
          <mxGeometry width="50" height="50" relative="1" as="geometry">
            <mxPoint x="690" y="429.57" as="sourcePoint" />
            <mxPoint x="750" y="429.57" as="targetPoint" />
          </mxGeometry>
        </mxCell>
        <mxCell id="NKFcS4flrV_AODu7ja6--46" value="" style="endArrow=none;html=1;rounded=0;" parent="1" edge="1">
          <mxGeometry width="50" height="50" relative="1" as="geometry">
            <mxPoint x="750" y="200" as="sourcePoint" />
            <mxPoint x="750" y="810" as="targetPoint" />
          </mxGeometry>
        </mxCell>
        <mxCell id="NKFcS4flrV_AODu7ja6--47" value="" style="endArrow=classic;html=1;rounded=0;entryX=1;entryY=0.5;entryDx=0;entryDy=0;" parent="1" target="NKFcS4flrV_AODu7ja6--43" edge="1">
          <mxGeometry width="50" height="50" relative="1" as="geometry">
            <mxPoint x="750" y="810" as="sourcePoint" />
            <mxPoint x="800" y="960" as="targetPoint" />
          </mxGeometry>
        </mxCell>
        <mxCell id="NKFcS4flrV_AODu7ja6--52" value="" style="edgeStyle=orthogonalEdgeStyle;rounded=0;orthogonalLoop=1;jettySize=auto;html=1;" parent="1" source="NKFcS4flrV_AODu7ja6--49" target="NKFcS4flrV_AODu7ja6--51" edge="1">
          <mxGeometry relative="1" as="geometry" />
        </mxCell>
        <mxCell id="NKFcS4flrV_AODu7ja6--49" value="อัพเดทจำนวนคำถาม ก่อนหน้า และถัดไป" style="whiteSpace=wrap;html=1;rounded=1;" parent="1" vertex="1">
          <mxGeometry x="390" y="610" width="120" height="60" as="geometry" />
        </mxCell>
        <mxCell id="NKFcS4flrV_AODu7ja6--50" value="" style="edgeStyle=orthogonalEdgeStyle;rounded=0;orthogonalLoop=1;jettySize=auto;html=1;" parent="1" source="NKFcS4flrV_AODu7ja6--37" target="NKFcS4flrV_AODu7ja6--49" edge="1">
          <mxGeometry relative="1" as="geometry" />
        </mxCell>
        <mxCell id="NKFcS4flrV_AODu7ja6--55" style="edgeStyle=orthogonalEdgeStyle;rounded=0;orthogonalLoop=1;jettySize=auto;html=1;exitX=0.5;exitY=1;exitDx=0;exitDy=0;" parent="1" source="NKFcS4flrV_AODu7ja6--51" edge="1">
          <mxGeometry relative="1" as="geometry">
            <mxPoint x="550" y="810" as="targetPoint" />
            <Array as="points">
              <mxPoint x="450" y="810" />
              <mxPoint x="540" y="810" />
            </Array>
          </mxGeometry>
        </mxCell>
        <mxCell id="NKFcS4flrV_AODu7ja6--51" value="อัพเดทข้อมูลคำถาม" style="whiteSpace=wrap;html=1;rounded=1;" parent="1" vertex="1">
          <mxGeometry x="390" y="700" width="120" height="60" as="geometry" />
        </mxCell>
        <mxCell id="NKFcS4flrV_AODu7ja6--56" value="U1&lt;br&gt;" style="text;html=1;align=center;verticalAlign=middle;resizable=0;points=[];autosize=1;strokeColor=none;fillColor=none;" parent="1" vertex="1">
          <mxGeometry x="760" y="20" width="40" height="30" as="geometry" />
        </mxCell>
        <mxCell id="NKFcS4flrV_AODu7ja6--69" value="U2" style="text;html=1;align=center;verticalAlign=middle;resizable=0;points=[];autosize=1;strokeColor=none;fillColor=none;" parent="1" vertex="1">
          <mxGeometry x="1590" y="15" width="40" height="30" as="geometry" />
        </mxCell>
        <mxCell id="NKFcS4flrV_AODu7ja6--70" value="" style="group" parent="1" vertex="1" connectable="0">
          <mxGeometry x="880" y="40" width="580" height="430.3399999999999" as="geometry" />
        </mxCell>
        <mxCell id="NKFcS4flrV_AODu7ja6--58" value="start&amp;nbsp;" style="ellipse;whiteSpace=wrap;html=1;" parent="NKFcS4flrV_AODu7ja6--70" vertex="1">
          <mxGeometry y="0.33999999999991815" width="90" height="70" as="geometry" />
        </mxCell>
        <mxCell id="NKFcS4flrV_AODu7ja6--59" value="" style="endArrow=classic;html=1;rounded=0;" parent="NKFcS4flrV_AODu7ja6--70" edge="1">
          <mxGeometry width="50" height="50" relative="1" as="geometry">
            <mxPoint x="89.99555555555571" y="34.96444444444455" as="sourcePoint" />
            <mxPoint x="167.7733333333333" y="34.96444444444455" as="targetPoint" />
          </mxGeometry>
        </mxCell>
        <mxCell id="NKFcS4flrV_AODu7ja6--60" value="เลือกตัวกรอง" style="rounded=1;whiteSpace=wrap;html=1;" parent="NKFcS4flrV_AODu7ja6--70" vertex="1">
          <mxGeometry x="170" width="130" height="60.34" as="geometry" />
        </mxCell>
        <mxCell id="NKFcS4flrV_AODu7ja6--61" value="กรองคำถามทั้งหมดจากตัวกรอง" style="rounded=1;whiteSpace=wrap;html=1;" parent="NKFcS4flrV_AODu7ja6--70" vertex="1">
          <mxGeometry x="400" y="1.3099999999999454" width="152.22" height="57.72" as="geometry" />
        </mxCell>
        <mxCell id="NKFcS4flrV_AODu7ja6--62" value="" style="edgeStyle=orthogonalEdgeStyle;rounded=0;orthogonalLoop=1;jettySize=auto;html=1;" parent="NKFcS4flrV_AODu7ja6--70" source="NKFcS4flrV_AODu7ja6--60" target="NKFcS4flrV_AODu7ja6--61" edge="1">
          <mxGeometry relative="1" as="geometry" />
        </mxCell>
        <mxCell id="NKFcS4flrV_AODu7ja6--63" value="" style="edgeStyle=orthogonalEdgeStyle;rounded=0;orthogonalLoop=1;jettySize=auto;html=1;" parent="NKFcS4flrV_AODu7ja6--70" source="NKFcS4flrV_AODu7ja6--61" edge="1">
          <mxGeometry relative="1" as="geometry">
            <mxPoint x="476" y="120.33999999999992" as="targetPoint" />
          </mxGeometry>
        </mxCell>
        <mxCell id="NKFcS4flrV_AODu7ja6--65" value="อัพเดทข้อมูลคำถามที่ได้จากการกรอง" style="rounded=1;whiteSpace=wrap;html=1;" parent="NKFcS4flrV_AODu7ja6--70" vertex="1">
          <mxGeometry x="398.72" y="250.33999999999992" width="156.55" height="60" as="geometry" />
        </mxCell>
        <mxCell id="NKFcS4flrV_AODu7ja6--66" style="edgeStyle=orthogonalEdgeStyle;rounded=0;orthogonalLoop=1;jettySize=auto;html=1;strokeColor=default;" parent="NKFcS4flrV_AODu7ja6--70" source="NKFcS4flrV_AODu7ja6--64" target="NKFcS4flrV_AODu7ja6--65" edge="1">
          <mxGeometry relative="1" as="geometry" />
        </mxCell>
        <mxCell id="NKFcS4flrV_AODu7ja6--67" value="end" style="ellipse;whiteSpace=wrap;html=1;" parent="NKFcS4flrV_AODu7ja6--70" vertex="1">
          <mxGeometry x="412" y="350.3399999999999" width="130" height="80" as="geometry" />
        </mxCell>
        <mxCell id="NKFcS4flrV_AODu7ja6--68" value="" style="edgeStyle=orthogonalEdgeStyle;rounded=0;orthogonalLoop=1;jettySize=auto;html=1;strokeColor=default;" parent="NKFcS4flrV_AODu7ja6--70" source="NKFcS4flrV_AODu7ja6--65" target="NKFcS4flrV_AODu7ja6--67" edge="1">
          <mxGeometry relative="1" as="geometry" />
        </mxCell>
        <mxCell id="NKFcS4flrV_AODu7ja6--64" value="อัพเดทตัวกรอง" style="rounded=1;whiteSpace=wrap;html=1;" parent="NKFcS4flrV_AODu7ja6--70" vertex="1">
          <mxGeometry x="374" y="129.99999999999991" width="206" height="60" as="geometry" />
        </mxCell>
        <mxCell id="NKFcS4flrV_AODu7ja6--72" value="U3" style="text;html=1;align=center;verticalAlign=middle;resizable=0;points=[];autosize=1;strokeColor=none;fillColor=none;" parent="1" vertex="1">
          <mxGeometry x="730" y="1195" width="40" height="30" as="geometry" />
        </mxCell>
        <mxCell id="NKFcS4flrV_AODu7ja6--73" value="U4" style="text;html=1;align=center;verticalAlign=middle;resizable=0;points=[];autosize=1;strokeColor=none;fillColor=none;" parent="1" vertex="1">
          <mxGeometry x="1570" y="1185" width="40" height="30" as="geometry" />
        </mxCell>
        <mxCell id="NKFcS4flrV_AODu7ja6--108" value="" style="group" parent="1" vertex="1" connectable="0">
          <mxGeometry x="39" y="1225" width="720" height="1080" as="geometry" />
        </mxCell>
        <mxCell id="NKFcS4flrV_AODu7ja6--109" value="end" style="ellipse;whiteSpace=wrap;html=1;rounded=1;" parent="NKFcS4flrV_AODu7ja6--108" vertex="1">
          <mxGeometry x="340" y="1020" width="120" height="60" as="geometry" />
        </mxCell>
        <mxCell id="NKFcS4flrV_AODu7ja6--110" value="" style="group" parent="NKFcS4flrV_AODu7ja6--108" vertex="1" connectable="0">
          <mxGeometry x="270" width="365" height="840" as="geometry" />
        </mxCell>
        <mxCell id="NKFcS4flrV_AODu7ja6--111" value="" style="group" parent="NKFcS4flrV_AODu7ja6--110" vertex="1" connectable="0">
          <mxGeometry width="340" height="250" as="geometry" />
        </mxCell>
        <mxCell id="NKFcS4flrV_AODu7ja6--112" value="เรียก Hub" style="rounded=1;whiteSpace=wrap;html=1;" parent="NKFcS4flrV_AODu7ja6--111" vertex="1">
          <mxGeometry x="60" width="120" height="60" as="geometry" />
        </mxCell>
        <mxCell id="NKFcS4flrV_AODu7ja6--113" value="" style="edgeStyle=orthogonalEdgeStyle;rounded=0;orthogonalLoop=1;jettySize=auto;html=1;" parent="NKFcS4flrV_AODu7ja6--111" target="NKFcS4flrV_AODu7ja6--112" edge="1">
          <mxGeometry relative="1" as="geometry">
            <mxPoint y="30" as="sourcePoint" />
          </mxGeometry>
        </mxCell>
        <mxCell id="NKFcS4flrV_AODu7ja6--114" value="เเสดงแจ้งเตือนระบบว่าไม่สามารถเชื่อมต่อได้" style="whiteSpace=wrap;html=1;rounded=1;" parent="NKFcS4flrV_AODu7ja6--111" vertex="1">
          <mxGeometry x="220" y="130" width="120" height="60" as="geometry" />
        </mxCell>
        <mxCell id="NKFcS4flrV_AODu7ja6--115" value="ไม่ได้" style="text;html=1;align=center;verticalAlign=middle;resizable=0;points=[];autosize=1;strokeColor=none;fillColor=none;" parent="NKFcS4flrV_AODu7ja6--111" vertex="1">
          <mxGeometry x="160" y="130" width="50" height="30" as="geometry" />
        </mxCell>
        <mxCell id="NKFcS4flrV_AODu7ja6--116" value="" style="group" parent="NKFcS4flrV_AODu7ja6--111" vertex="1" connectable="0">
          <mxGeometry x="70" y="120" width="90" height="130" as="geometry" />
        </mxCell>
        <mxCell id="NKFcS4flrV_AODu7ja6--117" value="" style="edgeStyle=orthogonalEdgeStyle;rounded=0;orthogonalLoop=1;jettySize=auto;html=1;" parent="NKFcS4flrV_AODu7ja6--116" source="NKFcS4flrV_AODu7ja6--118" edge="1">
          <mxGeometry relative="1" as="geometry">
            <mxPoint x="50" y="130" as="targetPoint" />
          </mxGeometry>
        </mxCell>
        <mxCell id="NKFcS4flrV_AODu7ja6--118" value="เชื่อมต่อได้" style="rhombus;whiteSpace=wrap;html=1;rounded=1;" parent="NKFcS4flrV_AODu7ja6--116" vertex="1">
          <mxGeometry x="10" width="80" height="80" as="geometry" />
        </mxCell>
        <mxCell id="NKFcS4flrV_AODu7ja6--119" value="ได้" style="text;html=1;align=center;verticalAlign=middle;resizable=0;points=[];autosize=1;strokeColor=none;fillColor=none;" parent="NKFcS4flrV_AODu7ja6--116" vertex="1">
          <mxGeometry y="85" width="40" height="30" as="geometry" />
        </mxCell>
        <mxCell id="NKFcS4flrV_AODu7ja6--120" value="" style="edgeStyle=orthogonalEdgeStyle;rounded=0;orthogonalLoop=1;jettySize=auto;html=1;" parent="NKFcS4flrV_AODu7ja6--111" source="NKFcS4flrV_AODu7ja6--112" target="NKFcS4flrV_AODu7ja6--118" edge="1">
          <mxGeometry relative="1" as="geometry" />
        </mxCell>
        <mxCell id="NKFcS4flrV_AODu7ja6--121" value="" style="edgeStyle=orthogonalEdgeStyle;rounded=0;orthogonalLoop=1;jettySize=auto;html=1;" parent="NKFcS4flrV_AODu7ja6--111" source="NKFcS4flrV_AODu7ja6--118" target="NKFcS4flrV_AODu7ja6--114" edge="1">
          <mxGeometry relative="1" as="geometry" />
        </mxCell>
        <mxCell id="NKFcS4flrV_AODu7ja6--122" value="ทำการอัพเดทข้อมูลใน Hub โดยใช้ &lt;br&gt;Hub :&amp;nbsp; UpdateQuestionDisplay&lt;br&gt;Parameter : 1. ไอดีของคำถาม&amp;nbsp;&lt;br&gt;2. สถานะของคำถาม" style="rounded=1;whiteSpace=wrap;html=1;" parent="NKFcS4flrV_AODu7ja6--110" vertex="1">
          <mxGeometry x="20" y="250" width="200" height="80" as="geometry" />
        </mxCell>
        <mxCell id="NKFcS4flrV_AODu7ja6--123" value="" style="group" parent="NKFcS4flrV_AODu7ja6--110" vertex="1" connectable="0">
          <mxGeometry x="40" y="340.0000000000009" width="325" height="499.9999999999991" as="geometry" />
        </mxCell>
        <mxCell id="NKFcS4flrV_AODu7ja6--124" value="" style="group" parent="NKFcS4flrV_AODu7ja6--123" vertex="1" connectable="0">
          <mxGeometry x="35" y="149.9999999999991" width="180" height="210" as="geometry" />
        </mxCell>
        <mxCell id="NKFcS4flrV_AODu7ja6--125" value="สถานะ S" style="rhombus;whiteSpace=wrap;html=1;rounded=1;" parent="NKFcS4flrV_AODu7ja6--124" vertex="1">
          <mxGeometry x="10" y="57.5" width="80" height="80" as="geometry" />
        </mxCell>
        <mxCell id="NKFcS4flrV_AODu7ja6--126" value="" style="endArrow=classic;html=1;rounded=0;" parent="NKFcS4flrV_AODu7ja6--124" edge="1">
          <mxGeometry width="50" height="50" relative="1" as="geometry">
            <mxPoint x="49.5" as="sourcePoint" />
            <mxPoint x="49.5" y="60" as="targetPoint" />
          </mxGeometry>
        </mxCell>
        <mxCell id="NKFcS4flrV_AODu7ja6--127" value="" style="endArrow=classic;html=1;rounded=0;" parent="NKFcS4flrV_AODu7ja6--124" edge="1">
          <mxGeometry width="50" height="50" relative="1" as="geometry">
            <mxPoint x="90" y="97" as="sourcePoint" />
            <mxPoint x="160" y="97" as="targetPoint" />
          </mxGeometry>
        </mxCell>
        <mxCell id="NKFcS4flrV_AODu7ja6--128" value="" style="endArrow=classic;html=1;rounded=0;" parent="NKFcS4flrV_AODu7ja6--124" edge="1">
          <mxGeometry width="50" height="50" relative="1" as="geometry">
            <mxPoint x="50" y="137.5" as="sourcePoint" />
            <mxPoint x="50" y="177.5" as="targetPoint" />
          </mxGeometry>
        </mxCell>
        <mxCell id="NKFcS4flrV_AODu7ja6--129" value="ไม่ใช่" style="text;html=1;align=center;verticalAlign=middle;resizable=0;points=[];autosize=1;strokeColor=none;fillColor=none;" parent="NKFcS4flrV_AODu7ja6--124" vertex="1">
          <mxGeometry x="90" y="57.5" width="50" height="30" as="geometry" />
        </mxCell>
        <mxCell id="NKFcS4flrV_AODu7ja6--130" value="ใช่" style="text;html=1;align=center;verticalAlign=middle;resizable=0;points=[];autosize=1;strokeColor=none;fillColor=none;" parent="NKFcS4flrV_AODu7ja6--124" vertex="1">
          <mxGeometry y="142.5" width="40" height="30" as="geometry" />
        </mxCell>
        <mxCell id="NKFcS4flrV_AODu7ja6--131" value="ตรวจสอบสถานะข้อมูล" style="rounded=1;whiteSpace=wrap;html=1;" parent="NKFcS4flrV_AODu7ja6--123" vertex="1">
          <mxGeometry y="79.99999999999909" width="170" height="60" as="geometry" />
        </mxCell>
        <mxCell id="NKFcS4flrV_AODu7ja6--132" value="แสดงการแจ้งเตือน&lt;br&gt;ข้อผิดพลาด" style="rounded=1;whiteSpace=wrap;html=1;" parent="NKFcS4flrV_AODu7ja6--123" vertex="1">
          <mxGeometry x="205" y="219.9999999999991" width="120" height="60" as="geometry" />
        </mxCell>
        <mxCell id="NKFcS4flrV_AODu7ja6--133" value="กรองข้อมูลคำถามที่ตรงกับที่เลือกมา" style="rounded=1;whiteSpace=wrap;html=1;" parent="NKFcS4flrV_AODu7ja6--123" vertex="1">
          <mxGeometry x="25" y="329.9999999999991" width="125" height="70" as="geometry" />
        </mxCell>
        <mxCell id="NKFcS4flrV_AODu7ja6--134" value="" style="endArrow=none;html=1;rounded=0;strokeColor=default;" parent="NKFcS4flrV_AODu7ja6--123" target="NKFcS4flrV_AODu7ja6--132" edge="1">
          <mxGeometry width="50" height="50" relative="1" as="geometry">
            <mxPoint x="325" y="250" as="sourcePoint" />
            <mxPoint x="335" y="-3610.000000000001" as="targetPoint" />
          </mxGeometry>
        </mxCell>
        <mxCell id="NKFcS4flrV_AODu7ja6--135" value="" style="endArrow=classic;html=1;rounded=0;" parent="NKFcS4flrV_AODu7ja6--123" edge="1">
          <mxGeometry width="50" height="50" relative="1" as="geometry">
            <mxPoint x="84.50000000000023" as="sourcePoint" />
            <mxPoint x="84.50000000000023" y="70" as="targetPoint" />
          </mxGeometry>
        </mxCell>
        <mxCell id="NKFcS4flrV_AODu7ja6--136" value="" style="edgeStyle=orthogonalEdgeStyle;rounded=0;orthogonalLoop=1;jettySize=auto;html=1;strokeColor=default;" parent="NKFcS4flrV_AODu7ja6--123" source="NKFcS4flrV_AODu7ja6--133" edge="1">
          <mxGeometry relative="1" as="geometry">
            <mxPoint x="87.5" y="470" as="targetPoint" />
          </mxGeometry>
        </mxCell>
        <mxCell id="NKFcS4flrV_AODu7ja6--137" value="อัพเดทข้อมูลคำถาม" style="rounded=1;whiteSpace=wrap;html=1;" parent="NKFcS4flrV_AODu7ja6--123" vertex="1">
          <mxGeometry x="30" y="439.9999999999991" width="120" height="60" as="geometry" />
        </mxCell>
        <mxCell id="NKFcS4flrV_AODu7ja6--138" value="" style="endArrow=none;html=1;rounded=0;strokeColor=default;" parent="NKFcS4flrV_AODu7ja6--108" edge="1">
          <mxGeometry width="50" height="50" relative="1" as="geometry">
            <mxPoint x="610" y="160" as="sourcePoint" />
            <mxPoint x="720" y="160" as="targetPoint" />
          </mxGeometry>
        </mxCell>
        <mxCell id="NKFcS4flrV_AODu7ja6--139" value="" style="endArrow=none;html=1;rounded=0;strokeColor=default;" parent="NKFcS4flrV_AODu7ja6--108" edge="1">
          <mxGeometry width="50" height="50" relative="1" as="geometry">
            <mxPoint x="635" y="590.0000000000009" as="sourcePoint" />
            <mxPoint x="715" y="590.0000000000009" as="targetPoint" />
          </mxGeometry>
        </mxCell>
        <mxCell id="NKFcS4flrV_AODu7ja6--140" value="" style="endArrow=none;html=1;rounded=0;strokeColor=default;" parent="NKFcS4flrV_AODu7ja6--108" edge="1">
          <mxGeometry width="50" height="50" relative="1" as="geometry">
            <mxPoint x="720" y="1050" as="sourcePoint" />
            <mxPoint x="720" y="161" as="targetPoint" />
          </mxGeometry>
        </mxCell>
        <mxCell id="NKFcS4flrV_AODu7ja6--141" value="start" style="ellipse;whiteSpace=wrap;html=1;rounded=1;" parent="NKFcS4flrV_AODu7ja6--108" vertex="1">
          <mxGeometry width="90" height="60" as="geometry" />
        </mxCell>
        <mxCell id="NKFcS4flrV_AODu7ja6--142" value="เลือกคำถาม" style="rounded=1;whiteSpace=wrap;html=1;" parent="NKFcS4flrV_AODu7ja6--108" vertex="1">
          <mxGeometry x="150" width="120" height="60" as="geometry" />
        </mxCell>
        <mxCell id="NKFcS4flrV_AODu7ja6--143" value="" style="edgeStyle=orthogonalEdgeStyle;rounded=0;orthogonalLoop=1;jettySize=auto;html=1;strokeColor=default;" parent="NKFcS4flrV_AODu7ja6--108" source="NKFcS4flrV_AODu7ja6--141" target="NKFcS4flrV_AODu7ja6--142" edge="1">
          <mxGeometry relative="1" as="geometry" />
        </mxCell>
        <mxCell id="NKFcS4flrV_AODu7ja6--144" value="" style="edgeStyle=orthogonalEdgeStyle;rounded=0;orthogonalLoop=1;jettySize=auto;html=1;strokeColor=default;" parent="NKFcS4flrV_AODu7ja6--108" source="NKFcS4flrV_AODu7ja6--137" target="NKFcS4flrV_AODu7ja6--146" edge="1">
          <mxGeometry relative="1" as="geometry" />
        </mxCell>
        <mxCell id="NKFcS4flrV_AODu7ja6--145" value="" style="edgeStyle=orthogonalEdgeStyle;rounded=0;orthogonalLoop=1;jettySize=auto;html=1;strokeColor=default;" parent="NKFcS4flrV_AODu7ja6--108" source="NKFcS4flrV_AODu7ja6--146" edge="1">
          <mxGeometry relative="1" as="geometry">
            <mxPoint x="400" y="1020" as="targetPoint" />
          </mxGeometry>
        </mxCell>
        <mxCell id="NKFcS4flrV_AODu7ja6--146" value="อัพเดทข้อมูลจำนวนสถานะ" style="rounded=1;whiteSpace=wrap;html=1;" parent="NKFcS4flrV_AODu7ja6--108" vertex="1">
          <mxGeometry x="340" y="880" width="120" height="60" as="geometry" />
        </mxCell>
        <mxCell id="NKFcS4flrV_AODu7ja6--147" value="" style="endArrow=classic;html=1;rounded=0;strokeColor=default;entryX=1;entryY=0.5;entryDx=0;entryDy=0;" parent="NKFcS4flrV_AODu7ja6--108" edge="1">
          <mxGeometry width="50" height="50" relative="1" as="geometry">
            <mxPoint x="720" y="1050" as="sourcePoint" />
            <mxPoint x="460" y="1050" as="targetPoint" />
          </mxGeometry>
        </mxCell>
        <mxCell id="_5y24cmxNpU70jhSXOJ_-5" value="" style="edgeStyle=orthogonalEdgeStyle;rounded=0;orthogonalLoop=1;jettySize=auto;html=1;" edge="1" parent="1" source="_5y24cmxNpU70jhSXOJ_-1" target="_5y24cmxNpU70jhSXOJ_-4">
          <mxGeometry relative="1" as="geometry" />
        </mxCell>
        <mxCell id="_5y24cmxNpU70jhSXOJ_-1" value="start" style="ellipse;whiteSpace=wrap;html=1;" vertex="1" parent="1">
          <mxGeometry x="870" y="1205" width="80" height="55" as="geometry" />
        </mxCell>
        <mxCell id="_5y24cmxNpU70jhSXOJ_-9" value="" style="edgeStyle=orthogonalEdgeStyle;rounded=0;orthogonalLoop=1;jettySize=auto;html=1;" edge="1" parent="1" source="_5y24cmxNpU70jhSXOJ_-4" target="_5y24cmxNpU70jhSXOJ_-8">
          <mxGeometry relative="1" as="geometry" />
        </mxCell>
        <mxCell id="_5y24cmxNpU70jhSXOJ_-4" value="เลือกคำถาม" style="rounded=1;whiteSpace=wrap;html=1;" vertex="1" parent="1">
          <mxGeometry x="1010" y="1202.5" width="120" height="60" as="geometry" />
        </mxCell>
        <mxCell id="_5y24cmxNpU70jhSXOJ_-11" value="" style="edgeStyle=orthogonalEdgeStyle;rounded=0;orthogonalLoop=1;jettySize=auto;html=1;" edge="1" parent="1" source="_5y24cmxNpU70jhSXOJ_-8" target="_5y24cmxNpU70jhSXOJ_-10">
          <mxGeometry relative="1" as="geometry" />
        </mxCell>
        <mxCell id="_5y24cmxNpU70jhSXOJ_-8" value="อัพเดทข้อมูลรูปภาพใน Modal&amp;nbsp;" style="whiteSpace=wrap;html=1;rounded=1;" vertex="1" parent="1">
          <mxGeometry x="1210" y="1202.5" width="120" height="60" as="geometry" />
        </mxCell>
        <mxCell id="_5y24cmxNpU70jhSXOJ_-14" value="" style="edgeStyle=orthogonalEdgeStyle;rounded=0;orthogonalLoop=1;jettySize=auto;html=1;" edge="1" parent="1" source="_5y24cmxNpU70jhSXOJ_-10" target="_5y24cmxNpU70jhSXOJ_-13">
          <mxGeometry relative="1" as="geometry" />
        </mxCell>
        <mxCell id="_5y24cmxNpU70jhSXOJ_-10" value="อัพเดทสถานะการแสดง Modal&amp;nbsp;" style="rounded=1;whiteSpace=wrap;html=1;" vertex="1" parent="1">
          <mxGeometry x="1210" y="1342.5" width="120" height="60" as="geometry" />
        </mxCell>
        <mxCell id="_5y24cmxNpU70jhSXOJ_-13" value="end" style="ellipse;whiteSpace=wrap;html=1;rounded=1;" vertex="1" parent="1">
          <mxGeometry x="1210" y="1482.5" width="120" height="60" as="geometry" />
        </mxCell>
        <mxCell id="_5y24cmxNpU70jhSXOJ_-18" value="" style="edgeStyle=orthogonalEdgeStyle;rounded=0;orthogonalLoop=1;jettySize=auto;html=1;" edge="1" parent="1" source="_5y24cmxNpU70jhSXOJ_-15" target="_5y24cmxNpU70jhSXOJ_-17">
          <mxGeometry relative="1" as="geometry" />
        </mxCell>
        <mxCell id="_5y24cmxNpU70jhSXOJ_-15" value="start" style="ellipse;whiteSpace=wrap;html=1;" vertex="1" parent="1">
          <mxGeometry x="30" y="2400" width="100" height="60" as="geometry" />
        </mxCell>
        <mxCell id="_5y24cmxNpU70jhSXOJ_-16" value="U5" style="text;html=1;align=center;verticalAlign=middle;resizable=0;points=[];autosize=1;strokeColor=none;fillColor=none;" vertex="1" parent="1">
          <mxGeometry x="760" y="2360" width="40" height="30" as="geometry" />
        </mxCell>
        <mxCell id="_5y24cmxNpU70jhSXOJ_-20" value="" style="edgeStyle=orthogonalEdgeStyle;rounded=0;orthogonalLoop=1;jettySize=auto;html=1;" edge="1" parent="1" source="_5y24cmxNpU70jhSXOJ_-17" target="_5y24cmxNpU70jhSXOJ_-19">
          <mxGeometry relative="1" as="geometry" />
        </mxCell>
        <mxCell id="_5y24cmxNpU70jhSXOJ_-17" value="เลือกรูปภาพ" style="rounded=1;whiteSpace=wrap;html=1;" vertex="1" parent="1">
          <mxGeometry x="200" y="2400" width="120" height="60" as="geometry" />
        </mxCell>
        <mxCell id="_5y24cmxNpU70jhSXOJ_-32" value="" style="edgeStyle=orthogonalEdgeStyle;rounded=0;orthogonalLoop=1;jettySize=auto;html=1;" edge="1" parent="1" source="_5y24cmxNpU70jhSXOJ_-19" target="_5y24cmxNpU70jhSXOJ_-31">
          <mxGeometry relative="1" as="geometry" />
        </mxCell>
        <mxCell id="_5y24cmxNpU70jhSXOJ_-19" value="กรองข้อมูลรูปภาพที่ตรงกับรูปภาพที่เลือกมา" style="rounded=1;whiteSpace=wrap;html=1;" vertex="1" parent="1">
          <mxGeometry x="400" y="2400" width="120" height="60" as="geometry" />
        </mxCell>
        <mxCell id="_5y24cmxNpU70jhSXOJ_-40" value="" style="edgeStyle=orthogonalEdgeStyle;rounded=0;orthogonalLoop=1;jettySize=auto;html=1;" edge="1" parent="1" source="_5y24cmxNpU70jhSXOJ_-21" target="_5y24cmxNpU70jhSXOJ_-39">
          <mxGeometry relative="1" as="geometry" />
        </mxCell>
        <mxCell id="_5y24cmxNpU70jhSXOJ_-21" value="มีรูปภาพ" style="rhombus;whiteSpace=wrap;html=1;rounded=1;" vertex="1" parent="1">
          <mxGeometry x="420" y="2710" width="80" height="80" as="geometry" />
        </mxCell>
        <mxCell id="_5y24cmxNpU70jhSXOJ_-27" value="ไม่" style="text;html=1;align=center;verticalAlign=middle;resizable=0;points=[];autosize=1;strokeColor=none;fillColor=none;" vertex="1" parent="1">
          <mxGeometry x="510" y="2710" width="40" height="30" as="geometry" />
        </mxCell>
        <mxCell id="_5y24cmxNpU70jhSXOJ_-44" value="" style="edgeStyle=orthogonalEdgeStyle;rounded=0;orthogonalLoop=1;jettySize=auto;html=1;" edge="1" parent="1" source="_5y24cmxNpU70jhSXOJ_-31" target="_5y24cmxNpU70jhSXOJ_-43">
          <mxGeometry relative="1" as="geometry" />
        </mxCell>
        <mxCell id="_5y24cmxNpU70jhSXOJ_-31" value="อัพเดทรูปภาพที่ได้จากการกรอง" style="whiteSpace=wrap;html=1;rounded=1;" vertex="1" parent="1">
          <mxGeometry x="400" y="2500" width="120" height="60" as="geometry" />
        </mxCell>
        <mxCell id="_5y24cmxNpU70jhSXOJ_-38" value="ใช่" style="text;html=1;align=center;verticalAlign=middle;resizable=0;points=[];autosize=1;strokeColor=none;fillColor=none;" vertex="1" parent="1">
          <mxGeometry x="394" y="2770" width="40" height="30" as="geometry" />
        </mxCell>
        <mxCell id="_5y24cmxNpU70jhSXOJ_-48" value="" style="edgeStyle=orthogonalEdgeStyle;rounded=0;orthogonalLoop=1;jettySize=auto;html=1;" edge="1" parent="1" source="_5y24cmxNpU70jhSXOJ_-39" target="_5y24cmxNpU70jhSXOJ_-47">
          <mxGeometry relative="1" as="geometry" />
        </mxCell>
        <mxCell id="_5y24cmxNpU70jhSXOJ_-39" value="อัพเดทแสดงปุ่มก่อนหน้า" style="whiteSpace=wrap;html=1;rounded=1;" vertex="1" parent="1">
          <mxGeometry x="400" y="2840" width="120" height="60" as="geometry" />
        </mxCell>
        <mxCell id="_5y24cmxNpU70jhSXOJ_-46" value="" style="edgeStyle=orthogonalEdgeStyle;rounded=0;orthogonalLoop=1;jettySize=auto;html=1;" edge="1" parent="1" source="_5y24cmxNpU70jhSXOJ_-43" target="_5y24cmxNpU70jhSXOJ_-21">
          <mxGeometry relative="1" as="geometry">
            <mxPoint x="460" y="2700" as="targetPoint" />
          </mxGeometry>
        </mxCell>
        <mxCell id="_5y24cmxNpU70jhSXOJ_-43" value="ตรวจสอบรูปภาพก่อนหน้ารูปที่เลือก" style="rounded=1;whiteSpace=wrap;html=1;" vertex="1" parent="1">
          <mxGeometry x="400" y="2600" width="120" height="60" as="geometry" />
        </mxCell>
        <mxCell id="_5y24cmxNpU70jhSXOJ_-53" value="" style="edgeStyle=orthogonalEdgeStyle;rounded=0;orthogonalLoop=1;jettySize=auto;html=1;" edge="1" parent="1" source="_5y24cmxNpU70jhSXOJ_-47" target="_5y24cmxNpU70jhSXOJ_-52">
          <mxGeometry relative="1" as="geometry" />
        </mxCell>
        <mxCell id="_5y24cmxNpU70jhSXOJ_-47" value="ตรวจสอบรูปภาพถัดไปจากรูปภาพที่เลือก" style="whiteSpace=wrap;html=1;rounded=1;" vertex="1" parent="1">
          <mxGeometry x="400" y="2940" width="120" height="60" as="geometry" />
        </mxCell>
        <mxCell id="_5y24cmxNpU70jhSXOJ_-49" value="" style="endArrow=classic;html=1;rounded=0;" edge="1" parent="1">
          <mxGeometry width="50" height="50" relative="1" as="geometry">
            <mxPoint x="611" y="2970" as="sourcePoint" />
            <mxPoint x="531" y="2970" as="targetPoint" />
          </mxGeometry>
        </mxCell>
        <mxCell id="_5y24cmxNpU70jhSXOJ_-50" value="" style="endArrow=none;html=1;rounded=0;" edge="1" parent="1">
          <mxGeometry width="50" height="50" relative="1" as="geometry">
            <mxPoint x="516" y="2749.33" as="sourcePoint" />
            <mxPoint x="611" y="2749.33" as="targetPoint" />
          </mxGeometry>
        </mxCell>
        <mxCell id="_5y24cmxNpU70jhSXOJ_-72" value="" style="edgeStyle=orthogonalEdgeStyle;rounded=0;orthogonalLoop=1;jettySize=auto;html=1;" edge="1" parent="1" source="_5y24cmxNpU70jhSXOJ_-52" target="_5y24cmxNpU70jhSXOJ_-69">
          <mxGeometry relative="1" as="geometry" />
        </mxCell>
        <mxCell id="_5y24cmxNpU70jhSXOJ_-52" value="มีรูปภาพ" style="rhombus;whiteSpace=wrap;html=1;rounded=1;" vertex="1" parent="1">
          <mxGeometry x="420" y="3055" width="80" height="80" as="geometry" />
        </mxCell>
        <mxCell id="_5y24cmxNpU70jhSXOJ_-55" value="ใช่" style="text;html=1;align=center;verticalAlign=middle;resizable=0;points=[];autosize=1;strokeColor=none;fillColor=none;" vertex="1" parent="1">
          <mxGeometry x="380" y="3105" width="40" height="30" as="geometry" />
        </mxCell>
        <mxCell id="_5y24cmxNpU70jhSXOJ_-68" value="" style="edgeStyle=orthogonalEdgeStyle;rounded=0;orthogonalLoop=1;jettySize=auto;html=1;" edge="1" parent="1" source="_5y24cmxNpU70jhSXOJ_-69">
          <mxGeometry relative="1" as="geometry">
            <mxPoint x="460" y="3280" as="targetPoint" />
          </mxGeometry>
        </mxCell>
        <mxCell id="_5y24cmxNpU70jhSXOJ_-69" value="อัพเดทแสดงปุ่มถัดไป" style="whiteSpace=wrap;html=1;rounded=1;" vertex="1" parent="1">
          <mxGeometry x="400" y="3180" width="120" height="60" as="geometry" />
        </mxCell>
        <mxCell id="_5y24cmxNpU70jhSXOJ_-73" value="end" style="ellipse;whiteSpace=wrap;html=1;" vertex="1" parent="1">
          <mxGeometry x="400" y="3290" width="120" height="80" as="geometry" />
        </mxCell>
        <mxCell id="_5y24cmxNpU70jhSXOJ_-74" value="อัพเดทซ่อนปุ่มก่อนหน้า" style="rounded=1;whiteSpace=wrap;html=1;" vertex="1" parent="1">
          <mxGeometry x="550" y="2840" width="120" height="60" as="geometry" />
        </mxCell>
        <mxCell id="_5y24cmxNpU70jhSXOJ_-76" value="" style="endArrow=classic;html=1;rounded=0;" edge="1" parent="1">
          <mxGeometry width="50" height="50" relative="1" as="geometry">
            <mxPoint x="610" y="2750" as="sourcePoint" />
            <mxPoint x="610" y="2830" as="targetPoint" />
          </mxGeometry>
        </mxCell>
        <mxCell id="_5y24cmxNpU70jhSXOJ_-77" value="" style="endArrow=none;html=1;rounded=0;entryX=0.5;entryY=1;entryDx=0;entryDy=0;" edge="1" parent="1" target="_5y24cmxNpU70jhSXOJ_-74">
          <mxGeometry width="50" height="50" relative="1" as="geometry">
            <mxPoint x="610" y="2970" as="sourcePoint" />
            <mxPoint x="650" y="2920" as="targetPoint" />
          </mxGeometry>
        </mxCell>
        <mxCell id="_5y24cmxNpU70jhSXOJ_-78" value="ไม่" style="text;html=1;align=center;verticalAlign=middle;resizable=0;points=[];autosize=1;strokeColor=none;fillColor=none;" vertex="1" parent="1">
          <mxGeometry x="500" y="3050" width="40" height="30" as="geometry" />
        </mxCell>
        <mxCell id="_5y24cmxNpU70jhSXOJ_-84" value="" style="group" vertex="1" connectable="0" parent="1">
          <mxGeometry x="520" y="3090" width="154" height="220.67000000000007" as="geometry" />
        </mxCell>
        <mxCell id="_5y24cmxNpU70jhSXOJ_-79" value="" style="endArrow=classic;html=1;rounded=0;" edge="1" parent="_5y24cmxNpU70jhSXOJ_-84">
          <mxGeometry width="50" height="50" relative="1" as="geometry">
            <mxPoint x="95" y="220.67000000000007" as="sourcePoint" />
            <mxPoint x="15" y="220.67000000000007" as="targetPoint" />
          </mxGeometry>
        </mxCell>
        <mxCell id="_5y24cmxNpU70jhSXOJ_-80" value="" style="endArrow=none;html=1;rounded=0;" edge="1" parent="_5y24cmxNpU70jhSXOJ_-84">
          <mxGeometry width="50" height="50" relative="1" as="geometry">
            <mxPoint as="sourcePoint" />
            <mxPoint x="95" as="targetPoint" />
          </mxGeometry>
        </mxCell>
        <mxCell id="_5y24cmxNpU70jhSXOJ_-81" value="อัพเดทซ่อนปุ่มถัดไป" style="rounded=1;whiteSpace=wrap;html=1;" vertex="1" parent="_5y24cmxNpU70jhSXOJ_-84">
          <mxGeometry x="34" y="90.67000000000007" width="120" height="60" as="geometry" />
        </mxCell>
        <mxCell id="_5y24cmxNpU70jhSXOJ_-82" value="" style="endArrow=classic;html=1;rounded=0;" edge="1" parent="_5y24cmxNpU70jhSXOJ_-84">
          <mxGeometry width="50" height="50" relative="1" as="geometry">
            <mxPoint x="94" y="0.6700000000000728" as="sourcePoint" />
            <mxPoint x="94" y="80.67000000000007" as="targetPoint" />
          </mxGeometry>
        </mxCell>
        <mxCell id="_5y24cmxNpU70jhSXOJ_-83" value="" style="endArrow=none;html=1;rounded=0;entryX=0.5;entryY=1;entryDx=0;entryDy=0;" edge="1" parent="_5y24cmxNpU70jhSXOJ_-84" target="_5y24cmxNpU70jhSXOJ_-81">
          <mxGeometry width="50" height="50" relative="1" as="geometry">
            <mxPoint x="94" y="220.67000000000007" as="sourcePoint" />
            <mxPoint x="134" y="170.67000000000007" as="targetPoint" />
          </mxGeometry>
        </mxCell>
      </root>
    </mxGraphModel>
  </diagram>
</mxfile>
